<svg width="40" height="40" viewBox="0 0 40 40" fill="none" xmlns="http://www.w3.org/2000/svg">
<path d="M23.73 25.58C23.8717 25.72 23.8717 25.9483 23.73 26.09C22.955 26.86 21.74 27.235 20.0117 27.235L19.9983 27.2317L19.985 27.235C18.2583 27.235 17.0417 26.86 16.2667 26.0883C16.125 25.9483 16.125 25.72 16.2667 25.58C16.4067 25.44 16.6367 25.44 16.7783 25.58C17.41 26.2083 18.4583 26.515 19.985 26.515L19.9983 26.5183L20.0117 26.515C21.5367 26.515 22.585 26.2083 23.2183 25.58C23.36 25.44 23.59 25.44 23.73 25.58ZM17.9967 21.55C17.9967 20.705 17.3067 20.0183 16.46 20.0183C15.6117 20.0183 14.9217 20.705 14.9217 21.55C14.9217 22.3933 15.6117 23.08 16.46 23.08C17.3067 23.0817 17.9967 22.395 17.9967 21.55ZM40 20C40 31.045 31.045 40 20 40C8.955 40 0 31.045 0 20C0 8.955 8.955 0 20 0C31.045 0 40 8.955 40 20ZM31.6667 19.785C31.6667 18.3667 30.5083 17.2133 29.0833 17.2133C28.3883 17.2133 27.7583 17.4917 27.2933 17.9383C25.5333 16.78 23.1517 16.0433 20.5167 15.9483L21.9583 11.4083L25.8633 12.3233L25.8583 12.38C25.8583 13.54 26.8067 14.4833 27.9717 14.4833C29.1367 14.4833 30.0833 13.54 30.0833 12.38C30.0833 11.22 29.1367 10.2767 27.9717 10.2767C27.0767 10.2767 26.315 10.835 26.0067 11.6167L21.7983 10.63C21.615 10.585 21.4267 10.6917 21.37 10.8717L19.7617 15.935C17.0017 15.9683 14.5033 16.7117 12.665 17.9033C12.2033 17.4783 11.5917 17.2117 10.915 17.2117C9.49167 17.2133 8.33333 18.3667 8.33333 19.785C8.33333 20.7283 8.85167 21.545 9.61333 21.9933C9.56333 22.2667 9.53 22.545 9.53 22.8267C9.53 26.6283 14.205 29.7217 19.9517 29.7217C25.6983 29.7217 30.3733 26.6283 30.3733 22.8267C30.3733 22.56 30.345 22.2983 30.3 22.04C31.11 21.605 31.6667 20.7633 31.6667 19.785ZM23.5467 20.02C22.6983 20.02 22.01 20.7067 22.01 21.5517C22.01 22.395 22.7 23.0817 23.5467 23.0817C24.3933 23.0817 25.0833 22.395 25.0833 21.5517C25.0833 20.7067 24.395 20.02 23.5467 20.02Z" fill="white"/>
</svg>
